P3
20 10
255
118 255 3   118 255 3   118 255 3   118 255 3   118 255 3   118 255 3   118 255 3   118 255 3   118 255 3   118 255 3   49  27  146 49  27  146 49  27  146 49  27  146 49  27  146 49  27  146 49  27  146 49  27  146 49  27  146 49  27  146 
118 255 3   49  27  146 49  27  146 49  27  146 49  27  146 49  27  146 49  27  146 49  27  146 49  27  146 118 255 3   49  27  146 118 255 3   118 255 3   118 255 3   0   0   0   0   0   0   118 255 3   118 255 3   118 255 3   49  27  146 
118 255 3   49  27  146 118 255 3   118 255 3   118 255 3   118 255 3   118 255 3   118 255 3   49  27  146 118 255 3   49  27  146 118 255 3   49  27  146 49  27  146 49  27  146 49  27  146 49  27  146 49  27  146 118 255 3   49  27  146 
118 255 3   49  27  146 118 255 3   49  27  146 49  27  146 49  27  146 49  27  146 118 255 3   49  27  146 118 255 3   49  27  146 118 255 3   49  27  146 118 255 3   118 255 3   118 255 3   118 255 3   49  27  146 118 255 3   49  27  146 
118 255 3   49  27  146 118 255 3   49  27  146 118 255 3   118 255 3   49  27  146 118 255 3   49  27  146 118 255 3   49  27  146 0   0   0   49  27  146 118 255 3   49  27  146 49  27  146 118 255 3   49  27  146 0   0   0   49  27  146 
118 255 3   49  27  146 118 255 3   49  27  146 118 255 3   118 255 3   49  27  146 118 255 3   49  27  146 118 255 3   49  27  146 0   0   0   49  27  146 118 255 3   49  27  146 49  27  146 118 255 3   49  27  146 0   0   0   49  27  146 
118 255 3   49  27  146 118 255 3   49  27  146 49  27  146 49  27  146 49  27  146 118 255 3   49  27  146 118 255 3   49  27  146 118 255 3   49  27  146 118 255 3   118 255 3   118 255 3   118 255 3   49  27  146 118 255 3   49  27  146 
118 255 3   49  27  146 118 255 3   118 255 3   118 255 3   118 255 3   118 255 3   118 255 3   49  27  146 118 255 3   49  27  146 118 255 3   49  27  146 49  27  146 49  27  146 49  27  146 49  27  146 49  27  146 118 255 3   49  27  146 
118 255 3   49  27  146 49  27  146 49  27  146 49  27  146 49  27  146 49  27  146 49  27  146 49  27  146 118 255 3   49  27  146 118 255 3   118 255 3   118 255 3   0   0   0   0   0   0   118 255 3   118 255 3   118 255 3   49  27  146 
118 255 3   118 255 3   118 255 3   118 255 3   118 255 3   118 255 3   118 255 3   118 255 3   118 255 3   118 255 3   49  27  146 49  27  146 49  27  146 49  27  146 49  27  146 49  27  146 49  27  146 49  27  146 49  27  146 49  27  146 
