P3
4 1
255
118 255 3     49  27  146 49  27  146   118 255 3


